<svg id="a" xmlns="http://www.w3.org/2000/svg" viewBox="0 0 289 74" width="289 " height="74"><defs><style>.b{fill:#221616;}.b,.c,.d{fill-rule:evenodd;}.c{fill:#0071ba;}.d{fill:#007e6b;}</style></defs><path class="b" d="M171.52,15h.34c1.01,0,2.01,0,3.19-.17v1.83c-1.34,0-2.35-.17-3.19-.17h-1.68v4h1.51c2.01,0,3.35,0,3.86-.17v2c-.84-.17-2.01-.17-3.86-.17h-1.34c1.01,2.83,3.02,4.83,6.04,6-.84,.5-1.51,1.17-2.01,2-2.52-2-4.19-4-4.69-6-.5,2.33-2.18,4.33-4.7,6.33-.34-.67-.84-1.17-1.68-1.83,2.68-1,4.36-3.17,5.03-6.5h-.67c-1.51,0-2.85,0-3.86,.17v-2c1.17,.17,2.35,.17,3.69,.17h.84v-4h-.33c-1.85,0-3.19,.17-3.69,.17v-1.83c1.01,0,2.18,.17,3.69,.17h1.84c.84-1.5,1.34-3.17,1.68-4.83,1.51,.5,2.35,.83,2.51,1.17,0,0-.17,0-.17,.17-.34,.33-.67,.67-.84,1-.84,1.33-1.34,2.17-1.51,2.5h0Zm-90.2,21.43h207.68v1.05H81.32v-1.05h0Zm206.73,25.23h-4.86v-3.17h4.36v-1.17h-4.36v-2.83h4.86v-1.17h-5.87v9.5h5.87v-1.17h0Zm-12.07-2.83h2.51c0,1-.17,1.83-.84,2.5-.67,.5-1.34,.67-1.68,.67-2.18,0-2.68-2-2.68-4,0-2.33,1.17-3.67,2.68-3.67,.84,0,2.01,.33,2.35,1.83h1.01c-.17-2-1.84-3-3.35-3-2.52,0-3.86,2.5-3.86,4.83,0,1,.17,2.67,1.34,4,.33,.5,1.01,1,2.52,1,1.01,0,2.01-.5,2.51-1.5l.34,1.33h.67v-5h-3.52v1h0Zm-5.7,2.83h-4.86v-3.17h4.36v-1.17h-4.36v-2.83h4.69v-1.17h-5.87v9.5h6.04v-1.17h0Zm-12.07-8.33h-1.01v9.5h5.03v-1.17h-4.02v-8.33h0Zm-7.04,0h-1.01v9.5h5.03v-1.17h-4.02v-8.33h0Zm-4.36,4.83c0,2.17-1.01,3.67-2.85,3.67-1.68,0-2.68-1.5-2.68-3.67,0-2.33,1.01-3.83,2.68-3.83,1.84,0,2.85,1.5,2.85,3.83h0Zm1.17,0c0-2.17-1.01-5-4.02-5-2.85,0-3.86,2.83-3.86,5,0,2,1.01,4.83,3.86,4.83,3.02,0,4.02-2.83,4.02-4.83h0Zm-9.72-2c-.17-1.5-1.17-3-3.19-3-2.35,0-3.86,2-3.86,4.83,0,3.67,1.84,5,3.69,5,.5,0,3.02-.17,3.52-3.67h-1.17c-.34,2.17-1.51,2.5-2.18,2.5-2.01,0-2.68-1.67-2.68-3.83,0-2.5,1.17-3.67,2.68-3.67,.67,0,1.84,.17,2.18,1.83h1.01Zm-14.75-2.83h-1.17v9.5h5.2v-1.17h-4.02v-8.33h0Zm-5.03,6.67l.84,2.83h1.17l-2.85-9.5h-1.34l-2.85,9.5h1.01l.84-2.83h3.19Zm-2.85-1l1.34-4.17,1.17,4.17h-2.52Zm-5.2,2l-4.02-7.67h-1.34v9.5h1.17v-7.67l4.02,7.67h1.17v-9.5h-1.01v7.67h0Zm-8.55-2.83c0,2.17-1.01,3.67-2.85,3.67-1.68,0-2.68-1.5-2.68-3.67,0-2.33,1.01-3.83,2.68-3.83,1.84,0,2.85,1.5,2.85,3.83h0Zm1.17,0c0-2.17-1.01-5-4.02-5-2.85,0-3.86,2.83-3.86,5,0,2,1.01,4.83,3.86,4.83,3.02,0,4.02-2.83,4.02-4.83h0Zm-11.4,4.67h1.34v-9.5h-1.34v9.5h0Zm-8.38-8.33h2.68v8.33h1.17v-8.33h2.68v-1.17h-6.54v1.17h0Zm-1.51,5.5h-3.18l-.84,2.83h-1.17l3.02-9.5h1.17l3.02,9.5h-1.17l-.84-2.83h0Zm-2.85-1h2.52l-1.17-4.17h-.17l-1.17,4.17h0Zm-5.2,2l-4.02-7.67h-1.34v9.5h1.01v-7.67h.17l4.02,7.67h1.17v-9.5h-1.01v7.67h0Zm-13.08-2.17h2.68c1.34,0,1.34,.83,1.34,1.67,0,.33,.17,1.67,.17,2.33h1.34v-.33c-.33-.17-.33-.33-.33-.83v-1.67c-.17-1.33-.5-1.67-1.01-1.83,.5-.33,1.01-.83,1.01-2.17,0-2-1.17-2.67-2.52-2.67h-3.69v9.5h1.01v-4h0Zm0-4.33h2.68c.5,0,1.51,.17,1.51,1.5,0,1.5-.84,1.67-1.68,1.67h-2.52v-3.17h0Zm-3.52,7.17h-4.69v-3.17h4.36v-1.17h-4.36v-2.83h4.69v-1.17h-5.87v9.5h5.87v-1.17h0Zm-14.25-7.17h2.68v8.33h1.01v-8.33h2.68v-1.17h-6.37v1.17h0Zm-3.02,6.5l-4.02-7.67h-1.17v9.5h1.01v-7.67l4.02,7.67h1.17v-9.5h-1.01v7.67h0Zm-9.22,1.83h1.34v-9.5h-1.34v9.5h0Zm-13.08,0h3.19c2.52,0,3.35-2.83,3.35-4.83,0-2.67-1.34-4.67-3.35-4.67h-3.19v9.5h0Zm1.01-8.33h2.01c1.51,0,2.35,1.17,2.35,3.5s-.84,3.67-2.18,3.67h-2.18v-7.17h0Zm-3.35,7.17h-4.86v-3.17h4.36v-1.17h-4.36v-2.83h4.69v-1.17h-5.87v9.5h6.04v-1.17h0Zm-14.42-7.17h2.68v8.33h1.01v-8.33h2.85v-1.17h-6.54v1.17h0Zm-2.51,8.33h1.17v-9.5h-1.17v9.5h0Zm-3.69-1.83l-4.02-7.67h-1.34v9.5h1.01v-7.67h.17l4.02,7.67h1.17v-9.5h-1.01v7.67h0Zm-7.71-7.67v6c0,2-1.01,2.5-2.01,2.5s-2.01-.5-2.01-2.5v-6h-1.17v6.33c0,1.67,1.01,3.33,3.18,3.33s3.19-1.67,3.19-3.5v-6.17h-1.17Zm166.15-9.67v3.5c0,1.33-.67,1.67-1.17,1.67s-1.01-.33-1.01-1.67v-3.5h-.67v3.83c0,1,.5,2,1.68,2s1.68-1,1.68-2.17v-3.67h-.5Zm4.53,4.5l-2.01-4.5h-.67v5.67h.5v-4.67l2.18,4.67h.5v-5.67h-.5v4.5h0Zm2.52-4.5h-.5v5.67h.5v-5.67h0Zm3.02,4.83l-1.34-4.83h-.5l1.51,5.67h.5l1.51-5.67h-.5l-1.17,4.83h0Zm5.87,.17h-2.52v-1.83h2.18v-.83h-2.18v-1.67h2.52v-.67h-3.02v5.67h3.02v-.67h0Zm1.84-1.83h1.34c.67,0,.67,.67,.67,1s0,1.17,.17,1.5h.67v-.17c-.17,0-.17-.17-.17-.5l-.17-1c0-.83-.17-1-.5-1.17,.33-.17,.67-.5,.67-1.33,0-1.17-.67-1.5-1.34-1.5h-2.01v5.67h.67v-2.5h0Zm0-2.5h1.34c.33,0,.67,0,.67,.83,0,1-.34,1-.84,1h-1.17v-1.83h0Zm6.87,1c0-.67-.17-1.83-1.51-1.83-1.01,0-1.51,.83-1.51,1.67,0,1,.67,1.33,1.01,1.5l.84,.17c.67,.33,.84,.5,.84,1,0,.83-.67,1-1.17,1s-1.01-.33-1.01-1.33h-.5c0,.5,0,1,.34,1.5,.17,.17,.5,.5,1.17,.5,.84,0,1.68-.33,1.68-1.67,0-1-.34-1.5-.84-1.67l-1.34-.33c-.17,0-.34-.17-.34-.67,0-.83,.5-1,.84-1,.5,0,1.01,.17,1.01,1.17h.5Zm2.01-1.67h-.5v5.67h.5v-5.67h0Zm1.01,.67h1.51v5h.5v-5h1.34v-.67h-3.35v.67h0Zm6.2,2.67l1.51-3.33h-.67l-1.17,2.67-1.17-2.67h-.67l1.51,3.33v2.33h.67v-2.33h0Zm-65.22-2.67h1.01c.67,0,.84,.33,.84,.83,0,.67-.34,.83-.84,.83h-1.01v-1.67h0Zm-.5,5h1.68c1.01,0,1.51-.83,1.51-1.67,0-1-.5-1.33-.84-1.33,.5-.33,.67-.83,.67-1.33,0-.67-.5-1.33-1.17-1.33h-1.84v5.67h0Zm.5-2.67h1.17c.34,0,1.01,.17,1.01,1,0,.67-.34,1-1.01,1h-1.17v-2h0Zm6.04,1l.5,1.67h.5l-1.51-5.67h-.5l-1.68,5.67h.67l.33-1.67h1.68Zm-1.51-.67l.67-2.5,.67,2.5h-1.34Zm4.19-2.67h1.17c.34,0,.67,.17,.67,.83,0,.83-.34,1.17-.84,1.17h-1.01v-2h0Zm0,2.67h1.34c.84,0,1.17-1,1.17-1.83s-.5-1.5-1.17-1.5h-1.84v5.67h.5v-2.33h0Zm3.35-2.67h1.34v5h.5v-5h1.51v-.67h-3.35v.67h0Zm4.86-.67h-.5v5.67h.5v-5.67h0Zm4.53,1.67c0-.67-.17-1.83-1.68-1.83-1.01,0-1.34,.83-1.34,1.67,0,1,.5,1.33,.84,1.5l.84,.17c.67,.33,.84,.5,.84,1,0,.83-.67,1-1.01,1-.5,0-1.17-.33-1.17-1.33h-.5c0,.5,0,1,.33,1.5,.17,.17,.5,.5,1.34,.5,.67,0,1.51-.33,1.51-1.67,0-1-.34-1.5-.84-1.67l-1.17-.33c-.33,0-.5-.17-.5-.67,0-.83,.5-1,1.01-1,.34,0,.84,.17,1.01,1.17h.5Zm.84-1h1.51v5h.5v-5h1.34v-.67h-3.35v.67h0Zm-42.59,3l.67-.83,1.51,2.83h.67l-1.84-3.33,1.84-2.33h-.84l-2.01,2.67v-2.67h-.5v5.67h.5v-2h0Zm6.71-.83c0,1.33-.67,2.33-1.51,2.33s-1.51-1-1.51-2.33,.67-2.33,1.51-2.33,1.51,1,1.51,2.33h0Zm.5,0c0-1.17-.5-3-2.01-3s-2.01,1.83-2.01,3,.5,3,2.01,3,2.01-1.83,2.01-3h0Zm3.86,1.67l-2.01-4.5h-.67v5.67h.5v-4.67l2.18,4.67h.5v-5.67h-.5v4.5h0Zm3.69-1.17h1.34c0,.5-.17,1-.5,1.5-.34,.33-.67,.33-.84,.33-1.17,0-1.34-1.17-1.34-2.33,0-1.5,.5-2.33,1.34-2.33,.34,0,1.01,.17,1.17,1.17h.5c0-1.33-1.01-1.83-1.68-1.83-1.34,0-2.01,1.5-2.01,3,0,.5,0,1.5,.67,2.33,.17,.33,.5,.67,1.34,.67,.5,0,1.01-.33,1.34-.83l.17,.67h.34v-3h-1.85v.67h0Zm-33.53-1h-2.18v-2.33h-.5v5.67h.5v-2.67h2.18v2.67h.5v-5.67h-.5v2.33h0Zm5.03,.5c0,1.33-.5,2.33-1.34,2.33-1.01,0-1.51-1-1.51-2.33s.5-2.33,1.51-2.33c.84,0,1.34,1,1.34,2.33h0Zm.67,0c0-1.17-.5-3-2.01-3s-2.01,1.83-2.01,3,.5,3,2.01,3,2.01-1.83,2.01-3h0Zm3.86,1.67l-2.18-4.5h-.67v5.67h.67v-4.67l2.01,4.67h.67v-5.67h-.5v4.5h0Zm3.69-1.17h1.17c0,.5,0,1-.34,1.5-.34,.33-.67,.33-.84,.33-1.17,0-1.51-1.17-1.51-2.33,0-1.5,.67-2.33,1.51-2.33,.34,0,1.01,.17,1.17,1.17h.5c-.17-1.33-1.01-1.83-1.68-1.83-1.34,0-2.01,1.5-2.01,3,0,.5,0,1.5,.67,2.33,.17,.33,.5,.67,1.17,.67s1.17-.33,1.51-.83v.67h.5v-3h-1.84v.67h0Zm-19.28,0h.67v-1h-.67v1h0Zm-37.22-3.33v3.5c0,1.33-.5,1.67-1.01,1.67s-1.17-.33-1.17-1.67v-3.5h-.5v3.83c0,1,.5,2,1.68,2,1.01,0,1.51-1,1.51-2.17v-3.67h-.5Zm4.7,4.5l-2.18-4.5h-.5v5.67h.5v-4.67l2.01,4.67h.67v-5.67h-.5v4.5h0Zm2.51-4.5h-.5v5.67h.5v-5.67h0Zm2.85,4.83l-1.17-4.83h-.67l1.51,5.67h.67l1.51-5.67h-.67l-1.17,4.83h0Zm5.87,.17h-2.35v-1.83h2.18v-.83h-2.18v-1.67h2.35v-.67h-3.02v5.67h3.02v-.67h0Zm1.84-1.83h1.34c.67,0,.84,.67,.84,1v1.5h.67v-.17c-.17,0-.17-.17-.17-.5v-1c0-.83-.34-1-.5-1.17,.34-.17,.5-.5,.5-1.33,0-1.17-.67-1.5-1.34-1.5h-1.84v5.67h.5v-2.5h0Zm0-2.5h1.51c.17,0,.67,0,.67,.83,0,1-.5,1-.84,1h-1.34v-1.83h0Zm7.04,1c0-.67-.17-1.83-1.68-1.83-1.01,0-1.34,.83-1.34,1.67,0,1,.67,1.33,.84,1.5l.84,.17c.67,.33,1.01,.5,1.01,1,0,.83-.84,1-1.17,1-.5,0-1.17-.33-1.17-1.33h-.5c0,.5,.17,1,.5,1.5,.17,.17,.5,.5,1.17,.5s1.68-.33,1.68-1.67c0-1-.5-1.5-1.01-1.67l-1.17-.33c-.17,0-.5-.17-.5-.67,0-.83,.67-1,1.01-1,.5,0,1.01,.17,1.01,1.17h.5Zm2.01-1.67h-.67v5.67h.67v-5.67h0Zm1.01,.67h1.34v5h.5v-5h1.51v-.67h-3.35v.67h0Zm6.04,2.67l1.51-3.33h-.5l-1.34,2.67-1.17-2.67h-.5l1.51,3.33v2.33h.5v-2.33h0Zm-62.37,1.17l-2.18-4.5h-.5v5.67h.5v-4.67l2.01,4.67h.67v-5.67h-.5v4.5h0Zm5.03-1.67c0,1.33-.5,2.33-1.34,2.33-1.01,0-1.51-1-1.51-2.33s.5-2.33,1.51-2.33c.84,0,1.34,1,1.34,2.33h0Zm.67,0c0-1.17-.5-3-2.01-3s-2.01,1.83-2.01,3,.5,3,2.01,3,2.01-1.83,2.01-3h0Zm1.68,.33h1.34c.67,0,.84,.67,.84,1v1.5h.67v-.17c-.17,0-.17-.17-.17-.5v-1c0-.83-.34-1-.5-1.17,.34-.17,.5-.5,.5-1.33,0-1.17-.67-1.5-1.34-1.5h-1.84v5.67h.5v-2.5h0Zm0-2.5h1.51c.17,0,.67,0,.67,.83,0,1-.5,1-.84,1h-1.34v-1.83h0Zm8.05,5v-5.67h-.84l-1.17,4.83-1.17-4.83h-.84v5.67h.5v-4.83l1.17,4.83h.5l1.17-4.83v4.83h.67Zm3.52-1.67l.5,1.67h.5l-1.51-5.67h-.67l-1.51,5.67h.67l.33-1.67h1.68Zm-1.51-.67l.67-2.5,.67,2.5h-1.34Zm4.02-3.33h-.5v5.67h2.68v-.67h-2.18v-5h0Zm-50.47,.67h1.01c.67,0,.84,.33,.84,.83,0,.67-.34,.83-.84,.83h-1.01v-1.67h0Zm-.5,5h1.68c1.01,0,1.51-.83,1.51-1.67,0-1-.5-1.33-.84-1.33,.5-.33,.5-.83,.5-1.33,0-.67-.33-1.33-1.17-1.33h-1.68v5.67h0Zm.5-2.67h1.01c.5,0,1.01,.17,1.01,1,0,.67-.17,1-.84,1h-1.17v-2h0Zm6.87,2h-2.52v-2h2.18v-.67h-2.18v-1.67h2.52v-.67h-3.02v5.67h3.02v-.67h0Zm1.84-5h-.67v5.67h.67v-5.67h0Zm1.01,3.83v.5c0,.67,.17,1.5,1.17,1.5,.67,0,1.17-.33,1.17-1.67v-4.17h-.5v4.17c0,.5-.17,1-.67,1-.33,0-.67-.17-.67-1v-.33h-.5Zm4.36-3.83h-.5v5.67h.5v-5.67h0Zm4.19,4.5l-2.18-4.5h-.67v5.67h.67v-4.67l2.01,4.67h.67v-5.67h-.5v4.5h0Zm3.69-1.17h1.17c0,.5,0,1-.34,1.5-.34,.33-.67,.33-.84,.33-1.17,0-1.51-1.17-1.51-2.33,0-1.5,.67-2.33,1.34-2.33,.5,0,1.17,.17,1.34,1.17h.5c-.17-1.33-1.01-1.83-1.68-1.83-1.34,0-2.01,1.5-2.01,3,0,.5,0,1.5,.67,2.33,.17,.33,.5,.67,1.17,.67s1.17-.33,1.34-.83l.17,.67h.34v-3h-1.68v.67h0Zm44.6-23.33h2.52v2.17h-1.01v-1.33h-7.88v1c0,.17,0,.33,.17,.33h-1.17v-.17c0-.33,.17-.67,.17-1,0-.5-.17-1-.17-1.17,.34,.17,.67,.17,1.17,.17h5.2c.67-.67,1.01-1.5,1.34-2.5,.84,.33,1.17,.5,1.17,.5v.17c-.17,0-.34,.17-.34,.33-.34,.5-.84,1-1.17,1.5h0Zm-1.68-.83c-.17-.83-.5-1.33-.5-1.67l-1.01,.17c.17,.67,.34,1.33,.5,1.83l1.01-.33h0Zm-2.35,.33c-.5-.83-.84-1.33-1.17-1.5l-1.01,.33c.5,.33,.84,.83,1.17,1.5l1.01-.33h0Zm.17,2.5c-.5,0-1.01,0-1.51-.17h-.17v1c.67,0,1.17-.17,1.68-.17h3.19c-.84,.33-1.51,.5-2.01,.83v.67h-4.86v1h.34c.5,0,1.01-.17,1.34-.17h3.19v1.5q0,.17-.34,.17c0,.17-.5,.17-1.01,0,.17,.33,.34,.67,.5,1.17,.67,0,1.17-.17,1.51-.33,.17,0,.33-.33,.33-.67v-1.83h2.68c.5,0,1.01,.17,1.51,.17h.33v-1h-4.53v-.33c.17,0,.34-.17,.5-.17,1.01-.5,1.68-.67,2.01-.67v-1h-4.69Zm-10.06-3c0-.33,.17-.67,.33-1v-.17c0-.17-.5-.17-1.34-.17,0,.33,.17,.67,.17,1v2h-2.51c-.84,0-1.51,0-1.84-.17v1.17c.34-.17,.84-.17,1.84-.17h2.35c-.34,2.83-1.84,4.67-4.86,5.33,.5,.17,1.01,.5,1.17,.83,2.68-1,4.19-2.67,4.36-5,.5,2,1.84,3.67,4.02,4.83,.5-.5,.84-.83,1.17-1-2.52-.67-4.02-2.33-4.69-5h2.01c1.01,0,1.84,0,2.18,.17v-1.17c-.33,.17-1.01,.17-2.18,.17h-2.18v-1.67h0Zm-12.74-1.5c.67,.17,1.17,.33,1.17,.33,0,0,0,.17-.17,.17s-.17,.17-.17,.17c1.17,1.5,2.85,2.67,4.86,3-.34,.17-.5,.5-.84,1-2.01-.67-3.52-1.83-4.53-3.5-1.51,1.67-2.85,3-4.36,3.83-.33-.5-.67-.67-1.01-1,2.18-.67,3.86-2.17,5.03-4h0Zm-.5,4c-.5,0-1.17,0-1.84-.17v1h5.2v-1c-.34,.17-1.01,.17-2.18,.17h-1.17Zm-1.68,1.83h-2.01v1c.67-.17,1.34-.17,2.01-.17h1.51c-1.17,1.33-2.18,2.17-3.02,2.5l.34,1c.34-.33,2.52-.5,6.2-.67,.17,.17,.5,.5,.67,.83l1.01-.5c-.67-.83-1.51-1.67-2.52-2.5l-.84,.67c.34,.17,.84,.5,1.17,.83-.5,0-1.68,.17-3.52,.33h-1.01c.67-.67,1.34-1.17,2.18-1.83h.17l.17-.17c0-.17-.17-.33-.5-.5h2.85c1.01,0,1.84,0,2.18,.17v-1h-7.04Zm-11.9-4.33c-.5-.5-1.01-.83-1.85-1.33l-.67,.83c.67,.33,1.34,.67,1.84,1.33l.67-.83h0Zm2.18-1h-.67c-.34-.17-.67-.17-.84-.17v.83h4.86v.67h-4.53v.67h4.53v.67h-5.03v.83h6.04v-3.67c-.5,0-1.01,.17-1.68,.17h-2.68Zm-2.52,3.33l-.67,.83c-.5-.5-1.17-.83-1.84-1.17l.5-.67c.5,.17,1.01,.5,2.01,1h0Zm-1.67,6.17c.5-1,1.01-2.33,1.51-4.17l-1.01-.5c-.34,1.67-.84,3.17-1.51,4.17l1.01,.5h0Zm4.86-4h3.19q.17,0,0,0c-.5,1.17-1.17,2.17-2.01,2.67,1.17,.33,2.35,.5,3.69,.5-.34,.33-.5,.67-.67,1.17-1.17-.33-2.01-.5-2.68-.83-.33-.17-.67-.33-1.01-.5-.84,.5-2.01,.83-3.35,1.17-.17-.33-.34-.67-.67-.83,1.34-.17,2.35-.33,3.35-.67-.5-.5-1.01-1-1.34-1.5l.84-.33c.34,.5,.67,1,1.17,1.33,.5-.33,1.01-.83,1.51-1.33h-3.86v-.83h1.84Zm-2.01-1.5h-1.01v.83c0,.33,0,.67-.17,.83h1.01v-1h5.87v1h1.01v-1.67h-6.71Zm-7.88-3.5v.67h2.01v.83h-2.01v1.33h.84c.5,0,1.01-.17,1.51-.17v.83h-2.52c.67,1,1.68,1.5,3.02,1.67v.17c-.34,.17-.5,.5-.67,1-.67-.33-1.17-.67-1.68-1v1.83h-3.52v.5c0,.33,.17,.5,.17,.5h3.35c.17-.17,.33-.5,.33-1,.34,.17,.67,.33,1.01,.5-.17,.5-.34,1-.67,1.17-.17,.17-.67,.33-1.34,.17h-2.18c-.67,0-1.01,0-1.17-.17-.17,0-.34-.33-.34-.67v-2.83c-.34,.33-.84,.67-1.17,.83-.17-.33-.33-.5-.67-.67,.84-.33,1.68-.83,2.51-2h-2.18v-.83c.33,0,.84,.17,1.17,.17h1.01v-1.33h-1.51v-.83h1.51v-.67c0-.17,0-.5-.17-.67,.67,0,1.17,0,1.17,.17v.17c-.17,0-.17,.17-.17,.33v.67h1.51v-1.5c.67,.17,1.01,.17,1.17,.33v.17c-.17,.17-.34,.33-.34,.33h0Zm-4.86,.83c-.5-.33-1.17-.83-1.84-1.17l-.67,.83c.34,.17,1.01,.5,1.68,1.17l.84-.83h0Zm2.52,.67v1.33h1.51v-1.33h-1.51Zm1.34,2h-1.17c-.34,.5-.67,.83-.84,1.17h2.85c-.17-.17-.5-.67-.84-1.17h0Zm-5.7,1.17c-.34,1.67-.67,2.83-1.01,3.67l.84,.5c.33-1,.84-2.33,1.17-3.67l-1.01-.5h0Zm3.69,.83v.83h2.68v-.83h-2.68Zm-4.86-2.5c.84,.5,1.51,1,1.84,1.33l.5-1c-.34-.33-.84-.67-1.68-1.17l-.67,.83h0Zm-6.2-2.5c.67-.17,1.34-.17,2.01-.17h1.17c.17,.17,.34,.17,.34,0,0,0-.17-.5-.84-1.17-.67,.33-1.68,.5-3.19,.67h-4.19c.17,.17,.34,.5,.5,.83,.17,0,1.34,0,3.19-.17v1h-4.36v.83h3.35c-.84,.83-2.18,1.5-3.86,2h.17c.33,.33,.5,.5,.67,.83,.5-.17,.84-.33,1.17-.5,0,.17,.17,.33,.17,.67v2.67c0,.33-.17,.83-.17,1.17h1.01v-.83h4.86v.83h1.01c-.17-.5-.17-1-.17-1.33v-2.67s0-.33,.17-.5c.34,.17,.67,.33,1.17,.33,.17-.33,.5-.67,.84-1-1.68-.17-3.02-.67-4.19-1.67h3.69v-.83h-4.53v-1h0Zm0,1.83c.33,.67,1.34,1.33,2.68,2.17h-2.68v-2.17h0Zm-2.85,2.17h-.67c1.17-.83,2.01-1.5,2.52-2.17v2.17h-1.84Zm4.86,1.67h-4.86v-1h4.86v1h0Zm0,1.5h-4.86v-.83h4.86v.83h0Zm59.86-17.5h1.34c.67,0,1.01-.17,1.17-.17v2.17h-1.01v-1.33h-7.88v1q0,.33,.17,.33h-1.17v-.17c0-.33,.17-.67,.17-.83,0-.67-.17-1-.17-1.17,.34,0,.67,0,1.17,.17h5.2c.67-.83,1.01-1.67,1.34-2.5,.84,.17,1.17,.33,1.17,.5-.17,.17-.34,.17-.34,.33-.34,.5-.84,1-1.17,1.67h0Zm-1.68-.83c-.17-1-.5-1.5-.5-1.67l-1.01,.17c.17,.67,.34,1.17,.5,1.67l1.01-.17h0Zm-2.35,.17c-.5-.67-.84-1.17-1.17-1.5l-1.01,.5c.5,.33,.84,.67,1.17,1.33l1.01-.33h0Zm.17,2.5h-1.68v.83h4.86c-.84,.17-1.51,.5-2.01,.67v.83h-3.19c-.34,0-.67,0-1.34-.17h-.34v1h4.86v1.33c0,.17,0,.33-.34,.33h-1.01c.17,.17,.34,.67,.5,1,.67,0,1.17,0,1.51-.17,.17-.17,.33-.5,.33-.83v-1.67h4.53v-1h-.33c-.5,.17-1.01,.17-1.68,.17h-2.52v-.5c.17,0,.34,0,.5-.17,1.01-.33,1.68-.67,2.01-.67v-1h-4.69Zm-10.06-2.83c0-.5,.17-.83,.33-1v-.33c0-.17-.5-.17-1.34-.17v3h-4.19v1h4.19c-.34,2.83-1.84,4.5-4.86,5.17,.5,.33,.84,.5,1.17,.83,2.68-1,4.02-2.67,4.36-4.83,.34,1.83,1.68,3.5,4.02,4.83,.34-.67,.84-1,1.17-1.17-2.52-.5-4.02-2.17-4.69-4.83h4.19v-1h-4.36v-1.5h0Zm-10.56-1v.67h3.35v.83h-3.35v.17c0,.33,0,.5,.17,1h-1.17c.17-.33,.17-.67,.17-1v-.17h-2.35v.17c0,.5,.17,.83,.17,1h-1.01v-1.17h-3.19v-.83h3.19v-1.33c.67,.17,1.17,.17,1.17,.17,0,.17-.17,.17-.17,.17,0,.17-.17,.33-.17,.5v.5h2.35v-.67c0-.17-.17-.5-.17-.67,.84,0,1.17,.17,1.17,.17v.17q-.17,.17-.17,.33h0Zm-3.52,3.83c-.33-.5-1.01-1-1.84-1.5l-.5,.67c.67,.5,1.17,1,1.68,1.5l.67-.67h0Zm2.68-.5c-.84,0-1.34,0-1.84-.17,.17,.33,.17,.83,.17,1.67v3.33c0,.5,0,.83,.17,1s.34,.17,.84,.17c1.01,0,1.51,.17,1.85,.17,.5,0,.84-.17,1.01-.17,.67,0,1.01-.17,1.34-.33,0,0,.34-.5,.5-1.17-.33,0-.67-.33-1.17-.67,0,.83-.17,1.17-.34,1.33h-2.68c-.5,0-.67-.17-.67-.33v-4.17h2.52v.83c0,.67-.17,1-.17,1-.17,.17-.5,.17-1.34,.17,.34,.33,.34,.67,.5,1,1.01,0,1.51-.17,1.68-.33,.17-.17,.34-1.33,.34-3.33h-2.68Zm-3.52,2.17l-.84,.67c-.34-.33-1.01-.83-1.68-1.17l.67-.67c.84,.5,1.51,.83,1.84,1.17h0Zm.17,.5c-.67,1.33-1.68,2.17-2.52,2.83,.34,.17,.67,.5,1.01,.83,.17-.5,.84-1.33,2.01-2.5,0-.17,.17-.17,.17-.17-.17-.17-.33-.5-.67-1h0Zm-12.24-6.5c.54,0,.86,.11,1.14,.24,.07,.03,.03,.51,.04,.6-.17,.5-.17,1.33-.17,2.5,0,1.83-.17,3-.17,3.67-.17,1.33-1.01,2.33-2.52,3.17-.34-.33-.67-.67-1.01-.83,1.51-.33,2.35-1.33,2.68-2.83,0-.5,0-1.67,.17-3.33,0-1.5-.17-2.5-.17-3.17h0Zm3.52,.67c-.67,0-1.34,0-1.84-.17v1h2.35v1.5h-2.18v5.5h1.01v-4.67h1.17v6.17h1.17c-.17-.67-.17-1.33-.17-2v-4.17h1.34v3.17c0,.33-.34,.5-1.17,.5,.17,.33,.34,.67,.5,1,1.01,0,1.68-.33,1.68-.83v-4.67h-2.35v-1.5h2.85v-1c-.5,.17-1.01,.17-2.01,.17h-2.35Zm-4.53,1.67c0-.33,0-.5,.17-.83v-.17s-.33-.17-1.34-.17c.17,.33,.17,.5,.17,.67v3.83c0,.83-.17,1.5-.17,1.67h1.17v-5h0Zm-7.71-1c-.17-.5-.34-1-.5-1.33l-1.17,.17s.17,.33,.5,1v.17h-4.69v1c.67-.17,1.17-.17,1.51-.17h7.38c.17,0,.67,0,1.51,.17v-1h-4.53Zm2.85,2.67v2.33c-.34-.17-.67-.17-1.17-.17h-1.84v2.83c0,.67-.5,1-1.68,1,0-.33-.17-.67-.5-1,1.01,.17,1.34,0,1.34-.33v-2.5h-2.01c-.5,0-.84,0-1.17,.17h-.17c.17-.33,.17-.67,.17-1v-1.17c0-.33,0-.67-.17-1h7.21v.83h0Zm-1.01,1.33v-1.33h-5.2v1.33h5.2Zm-6.87,4.17c.67-.33,1.34-1,2.18-1.83,.17-.17,.34-.17,.5-.17v-.17c.17,0,0-.17-.5-.33-.17,0-.34-.17-.34-.17-.84,.83-1.68,1.5-2.68,2l.84,.67h0Zm9.22-.83v-.17c-1.17-.67-1.84-1.33-2.52-1.67l-.67,.67c1.01,.67,1.84,1.33,2.35,1.83l.84-.67h0Zm-15.26-7.67c0-.17,0-.33,.17-.5v-.17s-.34-.17-1.17-.17v7.83c0,.83,.17,1.17,.33,1.5,.17,.17,.67,.33,1.34,.33h1.17c.5,0,.84-.17,1.17-.33,.17-.33,.5-.83,.67-1.5-.5,0-.84-.33-1.17-.5-.17,1-.5,1.5-1.01,1.5h-.67c-.34,0-.67-.17-.67-.17-.17-.17-.17-.33-.17-.67v-3c.84-.33,1.68-.83,2.52-1.33,.17,0,.34-.17,.5-.17s.34-.17,.34-.17c-.17-.33-.5-.5-.84-1-.84,.67-1.68,1.17-2.52,1.67v-3.17h0Zm-2.68,.33c0-.33,.17-.67,.34-.83v-.17h-1.34c.17,.17,.17,.5,.17,1v2h-2.85v1s.34-.17,1.17-.17h1.68v3.33c-1.51,.33-2.68,.67-3.52,.83l.5,1c.34-.17,.84-.33,1.51-.5,.5-.17,1.01-.5,1.51-.5v1.17c0,.17,0,.33-.17,.33h1.17c-.17-.17-.17-.67-.17-1.33v-7.17h0Zm195.5,6.17h-3.52v1.67c.5-.17,1.68-.17,3.52-.17h2.68c1.67,0,2.68,0,3.02,.17v-1.67h-5.7Zm-2.35,3.5c-1.17,0-2.01,0-2.52-.17v1.83c.34,0,.84,0,1.68-.17h1.17c0,4-2.01,5.83-5.87,6,.5,.33,1.17,1,1.68,1.67h.17c2.18-.67,3.69-1.67,4.53-2.67,.67-1.17,1.01-2.83,1.17-5h1.84v6c0,.67,.17,1,.5,1.17,.17,.33,.84,.33,1.84,.33h1.51c1.51,.17,2.51-.83,2.85-3-.5,0-1.17-.5-2.01-1.17-.17,1.83-.67,2.83-1.68,2.67-.84,0-1.17-.33-1.17-.83v-5.17h.5c1.84,0,3.02,.17,3.52,.17v-1.83c-.5,.17-1.68,.17-3.52,.17h-6.2Zm-7.04-9h2.18c1.01,0,1.84,0,2.51-.17-.5,.83-.84,2-1.17,3.17-.5,1.33-.84,2.5-1.34,3.67,1.34,1.67,2.01,3.33,2.01,4.83,0,1.67-1.34,2.67-3.69,3,.17-1-.17-1.67-.84-2.17h.33c1.51,.33,2.35-.17,2.35-1.5-.17-1.5-.84-2.67-2.01-3.83,.33-1.17,1.01-3,2.01-5.67h-2.85v14.83c0,.83,0,1.5,.17,2.17h-2.01V13.67c0-.83,0-1.5-.17-2,.67,.17,1.51,.17,2.51,.17h0Zm11.07-1.33l-2.51,.33c.67,.83,1.01,1.67,1.17,2.5h-3.35c-.67,0-1.34-.17-2.01-.17,0,.5,.17,1.17,.17,1.83s-.17,1.17-.17,1.67h2.01s0-.67-.17-2h9.05c0,.67-.17,1.33-.17,2h2.18c0-.83-.17-1.5-.17-1.67,0-.67,.17-1.17,.17-1.83-.5,0-1.17,.17-1.84,.17h-3.52l-.84-2.83h0Zm-22.97,4.83h2.51c1.34,0,2.18-.17,2.52-.17v4.17h-2.01v-2.5h-15.59v2c0,.33,0,.5,.17,.67h-2.18v-.33c.17-.67,.17-1.33,.17-1.83,0-1.17,0-2-.17-2.33,.5,.17,1.34,.17,2.35,.33h10.4c1.01-1.5,1.84-3.17,2.52-5,1.51,.5,2.35,.83,2.35,1,0,0,0,.17-.17,.17-.34,.17-.5,.33-.67,.67-.67,.83-1.51,2-2.18,3.17h0Zm-3.19-1.67c-.67-1.83-1.01-2.83-1.34-3.33l-2.01,.33c.5,1.33,1.01,2.5,1.17,3.33l2.18-.33h0Zm-4.86,.33c-1.01-1.33-1.68-2.33-2.35-2.83l-1.84,.83c.84,.67,1.51,1.67,2.18,2.67l2.01-.67h0Zm.34,5.17c-1.01,0-2.01-.17-3.02-.17h-.34v1.67h.17c1.17,0,2.18-.17,3.19-.17h6.2c-1.51,.5-2.68,1-3.86,1.5v1.5h-6.2c-.5,0-1.51,0-2.68-.17h-.67v2h.5c1.17-.17,2.18-.17,2.85-.17h6.2v2.83c0,.17-.17,.5-.5,.5-.33,.17-1.01,.17-2.18,0,.34,.5,.67,1.17,.84,2,1.51,0,2.52-.17,3.02-.33,.5-.33,.84-.83,.84-1.67v-3.33h5.2c1,0,2.18,0,3.18,.17h.34v-2h-.34c-1.01,.17-2.18,.17-3.35,.17h-5.03v-.83c.17,0,.5-.17,.84-.33,2.01-.83,3.35-1.17,4.19-1.33v-2h-.5c-.67,0-1.17,.17-1.51,.17h-7.38Zm-25.32-7.5h.5c1.51,0,2.52,0,3.19-.17q.17,0,.17,.17c-.17,.33-.34,1-1.01,2.5-.84,2.67-1.34,4-1.34,4,0,.17,0,.33,.17,.5,.67,.83,1.17,1.67,1.51,2.5,.5,2.5-.67,4-3.69,4.5,0-.83-.17-1.67-.67-2.17,1.34,.17,2.18,0,2.51-.83,.34-1.17-.17-2.5-1.68-4.17-.17,0-.17-.17-.17-.17l.17-.33c.67-1.67,1.34-3.33,1.84-4.83h-2.85v11.83c0,2,0,3.5,.17,4.5h-2.35c.17-1.17,.17-2.67,.17-4.5V11.5c1.17,.17,2.18,.17,3.35,.17h0Zm8.38,.5c-1.34,0-2.52-.17-3.52-.17v1.83c1.17-.17,2.35-.17,3.52-.17h2.35c1.34,0,2.68,0,3.69,.17v-1.83c-.84,0-2.18,0-3.86,.17h-2.18Zm-1.85,4.83c-1.17,0-2.35-.17-3.19-.33v1.83c1.01,0,2.01-.17,3.19-.17h1.68v6.83c0,1.67-.17,2.5-.17,2.5-.34,.17-1.34,.17-3.02-.17,.84,.67,1.17,1.5,1.17,2.17,2.35,0,3.52-.5,3.86-1.17v-3.17c0-2.17,0-4.5-.17-7h1.84c.17,0,.67,.17,1.51,.17h2.35v-1.83c-1.01,.17-2.35,.17-4.19,.33h-4.86Zm-1.68,3.5c-.5,2.33-1.51,4.5-3.35,6.67,.84,.17,1.68,.33,2.18,.83,1.34-1.83,2.35-4.17,3.35-6.67l-2.18-.83h0Zm11.57,6.17l-2.18,1c-1.01-2.5-2.18-4.5-3.35-6.17l1.84-.83c1.01,1.5,2.18,3.5,3.69,6h0Zm-26.32,.83h-14.25V13h14.25v14.5h0Zm-9.05-12.5h-3.35v1.5h4.36v2.5h-.84c-1.51,0-2.52-.17-3.19-.17v1.67h4.02v3.5h-1.51c-1.34-.17-2.52-.17-3.52-.17v1.83c.84-.17,2.18-.17,3.69-.17h4.69c.67,0,1.84,0,3.52,.17v-1.83c-.5,0-1.68,.17-3.52,.17h-1.51v-3.5h4.36v-1.83c-1.17,.17-2.18,.17-3.19,.33h-1.17v-2.5h4.7v-1.5h-7.54Zm6.87,7.67s-.17-.17-.33-.5c-.67-.83-1.01-1.17-1.34-1.5l-1.51,1c.34,.33,.84,1,1.34,2l1.84-1h0Zm-11.74-11.17c-.84,0-1.68-.17-2.35-.17,0,.83,.17,1.5,.17,2v15.5c0,.67-.17,1-.17,1.33h2.18c-.17-.33-.17-.67-.17-1.33h14.25c0,.67,0,1.17-.17,1.5h2.35c-.17-.33-.17-.83-.17-1.5V13.5c0-.83,0-1.67,.17-2.17-.84,0-1.68,.17-2.52,.17h-13.58Zm-16.26-1.17c1.51,.17,2.18,.5,2.51,.67,0,0-.17,0-.33,.17-.17,.17-.17,.33-.34,.33,2.35,3.33,5.7,5.33,10.06,6.17-.67,.5-1.17,1.17-1.68,2.17-4.19-1.67-7.38-4-9.39-7.33-2.35,3.33-5.2,5.83-8.55,7.83-.5-.67-1.01-1.17-1.68-1.5,4.19-1.5,7.21-4.33,9.39-8.5h0Zm5.7,17h-9.56v-4h9.56v4h0Zm.5-9.33c-.5,0-1.84,.17-3.86,.17h-2.85c-1.68,0-2.85,0-3.69-.17v1.83c1.01-.17,2.35-.17,3.69-.17h2.85c1.68,0,3.02,0,3.86,.17v-1.83h0Zm1.51,5.83c0-1,0-1.67,.17-2.17-.33,0-.67,0-1.01,.17h-10.73c-.84,0-1.51,0-2.18-.17,.17,.67,.17,1.33,.17,2v4.83c0,1,0,1.67-.17,2h2.18v-1.83h9.56c0,.67,0,1.17-.17,1.67h2.35c-.17-.67-.17-1.33-.17-2.17v-4.33h0Zm-24.81-10.17c-.34-.83-.84-2-1.51-3.17l-2.01,.5c.5,.67,1.01,1.67,1.51,3.17l2.01-.5h0Zm-7.54,2.83h-3.02v-2.83h3.02v2.83h0Zm-3.02,1.5h3.02v3h-3.02v-3h0Zm0,4.33h3.02v2.83l-3.02,.5v-3.33h0Zm5.03,8.17c-.17-.83-.17-2-.17-3.17v-.83c.17,0,.84-.17,1.51-.33l.17-1.67-1.68,.33V13.67h1.51v-2c-.84,.17-2.18,.17-3.69,.17h-3.18c-1.17,0-2.18,0-3.02-.17v2.17c.5-.17,1.01-.17,1.51-.17v12.33l-1.68,.17,.67,2.17c2.18-.67,4.19-1.17,5.87-1.5v3.67h2.18Z"></path><path class="d" d="M4.02,41c-2.18,0-4.02-1.83-4.02-4s1.84-3.83,4.02-3.83,3.86,1.67,3.86,3.83-1.68,4-3.86,4h0Zm4.69-1.17c.08,0,16.92,0,16.99-.01,1.4-.12,2.46-1.4,2.46-2.82,0-1.5-1.17-2.67-2.68-2.67H8.72c.5,.83,.84,1.67,.84,2.67s-.33,2-.84,2.83h0Zm57.01-5.5h-16.77c-1.51,0-2.68,1.17-2.68,2.67s1.17,2.83,2.68,2.83h16.77c-.5-.83-.67-1.83-.67-2.83s.17-1.83,.67-2.67h0ZM33.37,4c0-2.17,1.68-4,3.86-4s4.02,1.83,4.02,4-1.84,3.83-4.02,3.83-3.86-1.67-3.86-3.83h0Zm7.88,66.17c0,2.17-1.84,3.83-4.02,3.83s-3.86-1.67-3.86-3.83,1.68-4,3.86-4,4.02,1.83,4.02,4h0Zm-6.71-61.5V25.33c0,1.5,1.17,2.83,2.68,2.83s2.85-1.33,2.85-2.83V8.67c-.84,.5-1.84,.83-2.85,.83s-2.01-.33-2.68-.83h0Zm5.53,56.67v-16.5c0-1.67-1.34-2.83-2.85-2.83s-2.68,1.17-2.68,2.83v16.5c.67-.5,1.68-.67,2.68-.67s2.01,.17,2.85,.67h0Zm30.51-32.17c2.18,0,3.86,1.67,3.86,3.83s-1.68,4-3.86,4-4.02-1.83-4.02-4,1.85-3.83,4.02-3.83Z"></path><path class="c" d="M63.04,24l-3.86-3.83-6.37,6.33c-1.51,1.33-3.69,1.33-5.03,0-1.34-1.33-1.34-3.5,0-4.83l6.37-6.33-3.86-4-6.37,6.33c-3.52,3.5-3.52,9.33,0,12.83,3.36,3.18,8.72,3.33,12.26,.43,2.05-1.68,4.82-4.9,6.86-6.93Z"></path><path class="c" d="M30.51,17.67l-6.37-6.33-3.86,4,6.37,6.33c1.34,1.33,1.34,3.5,0,4.83-1.34,1.33-3.52,1.33-4.86,0l-6.37-6.33-4.02,4,6.37,6.33c3.52,3.33,9.22,3.33,12.74,0,3.4-3.38,3.52-8.94,.35-12.46-.11-.12-6.6-6.58-6.72-6.7l6.37,6.33Z"></path><path class="c" d="M17.77,43.67l-6.37,6.33,4.02,3.83,6.37-6.33c1.34-1.33,3.52-1.33,4.86,0,1.34,1.33,1.34,3.67,0,5l-6.37,6.33,3.86,3.83,6.37-6.33c3.52-3.5,3.52-9.17,0-12.67-3.52-3.5-9.22-3.5-12.74,0Z"></path><path class="c" d="M44.68,57.08l5.62,5.58,3.86-3.83-6.37-6.33c-1.34-1.33-1.34-3.67,0-5,1.34-1.33,3.52-1.33,5.03,0l6.37,6.33,3.86-3.83-6.37-6.33c-3.52-3.5-9.22-3.5-12.74,0-3.37,3.35-3.51,8.67-.45,12.19,.37,.43,.8,.83,1.2,1.23Z"></path></svg>